<svg id="Layer_1" data-name="Layer 1" xmlns="http://www.w3.org/2000/svg" viewBox="0 0 974.01 184.94"><defs><style>.cls-1{fill:#4d4d4d;}</style></defs><path class="cls-1" d="M46.4,398.28h-34L78.13,582.84H112.5L74.35,472.18,46.4,398.28Zm139,0H152.15L104.75,514,121,558.06l64.39-159.78Zm104.5,184.55h34L258.15,398.28H223.78l38.15,110.27,27.95,74.28Zm-139,0h33.24l45.16-115.22L213.05,423.5,150.89,582.83Zm189.35,0h31.35V468.77L340.24,423.5V582.84ZM465.63,398.67V526L376.88,398.67h-34L470.54,582.84H496.6V398.67Zm50.08,0h31V553.43h94.41v29.4H515.7V398.67ZM688,475.28v-77H656.23V583.22H688V475.28Zm19.57-76.61H842v29.4H707.52v-29.4Zm0,76.61h28.7V582.84h-28.7V475.28Zm0-7H828.75v29H707.52v-29ZM852,398.67H986.43v29.4H852v-29.4Zm0,154.76H986.43v29.4H852v-29.4Zm0-78.15H973.2v29H852v-29Z" transform="translate(-12.41 -398.28)"/></svg>